<?xml version="1.0" encoding="UTF-8"?>
<svg xmlns="http://www.w3.org/2000/svg" version="1.1" viewBox="0 0 60 60">
  <defs>
    <style>
      .cls-1 {
        fill: #f1ede5;
      }

      .cls-2 {
        fill: #ffdeb9;
      }
      

      .cls-3 {
        fill: #7f5539;
      }

      .cls-4 {
        fill: #cea78a;
      }

      .cls-5 {
        fill: #cca88c;
      }

      .cls-6 {
        fill: #f2ede5;
      }

      .cls-7 {
        fill: #c8a992;
      }
    </style>
  </defs>
  <!-- Generator: Adobe Illustrator 28.6.0, SVG Export Plug-In . SVG Version: 1.2.0 Build 709)  -->
  <g>
    <g id="Capa_1">
      <g>
        <circle class="cls-2" cx="30" cy="30" r="29.62"/>
        <g>
          <path class="cls-3" d="M40.6,30.39c.31.13.58.03.87-.08,1.11-.43,1.84-.23,2.39.6.63.95.54,2.34-.21,3.09-.79.79-1.84.93-2.86,1.14,0,0,0,0,0,0-1.63.55-3.26.57-4.89-.02,0,0,0,0,0,0-1.23-.17-1.23-.17-1.19,1.03.03.92.15,1.83.1,2.74-.08,1.39.66,2.15,1.81,2.63,1.6.66,3.29.76,4.99.78.88,0,1.77.02,2.65-.07.62-.06.86.21.97.75.13.67.17,1.35.03,2.02-.25,1.22-1.16,1.84-2.39,1.58-1.72-.36-3.44-.74-5.2-.94-2.22-.26-4.38.02-6.53.54,0,0,0,0,0,0,.36.4.73.76,1.05,1.16.77.99.55,1.7-.67,2.02-1.74.45-3.5.38-5.26.12-.93-.14-1.87-.34-2.77-.61-1.18-.36-1.48-.87-1.45-2.11.01-.7.27-1.39.14-2.17,0,0,0,0,0,0-.81.52-1.56,1.09-2.38,1.52-4.55,2.42-9.78,1.1-12.73-3.18-3.14-4.55-2.63-11.02,1.17-14.67,2.95-2.83,7.53-2.88,10.52-.11.07.06.13.14.19.32-.79-.14-1.49-.44-2.37-.4,0,0,0,0,0,0,1.13,1.96.5,3.76-.35,5.53-.28.58-.57,1.16-.82,1.75-1.01,2.39-.65,3.95,1.31,5.72.02.34-.25.28-.41.24-1.85-.44-3.22-1.8-3.13-3.69.05-1.04.3-2.03.71-2.98.28-.66.52-1.34.7-2.03.31-1.24.49-2.5-.57-3.46-1.01-.92-2.19-.66-3.35-.32,0,0,0,0,0,0-1.46,1.08-1.88,2.69-2.15,4.34-.37,2.28-.26,4.54.77,6.66,1.13,2.31,3.13,3.42,5.62,3.17,2.83-.29,4.21-1.44,4.95-4.18.63-2.35.65-4.76.7-7.16.09-4.21.16-8.42,1.1-12.55.65-2.86,1.67-5.58,3.37-8,1.41-2.01,2.57-2.11,4.27-.37.05.05.1.09.14.15,1.4,1.85,2.12,2.08,3.81-.28.37-.52.75-1.05,1.19-1.52.97-1.04,1.79-1.08,2.78-.05,1.99,2.07,3.64,4.38,4.42,7.2.2.71.41.88,1.16.66,1.07-.32,2.18-.32,3.33-.25.18.01.33.02.52.21.1.1-.05.21-.18.22-.67.05-1.28.06-1.95.16-.33.05-.69.1-1.08.25-.51.19-1.47.13-1.36.93s.89.49,1.38.47c1.11-.06,2.04.24,2.9.81.11.07.04.25-.09.22-.68-.11-1.36-.27-2.04-.34-.59-.06-1.15-.06-1.72-.05-.3,0-.62.12-.72.5-.1.42.22.5.49.65.81.44,1.49,1.04,2.25,1.57.2.14.42.23.55.49.06.11-.02.25-.14.26-.3.01-.49-.19-.71-.33-.16-.1-.38-.22-.59-.34-1.32-.78-2.14-1.58-3.11-.24-.64.89-1.74,1.25-2.78,1.6-.75.25-1.46.56-2.05,1.09-1.27,1.15-1.17,3.02.22,4.11,0,0,0,0,0,0,1.47.81,3.19.9,4.71,1.55Z"/>
          <path class="cls-4" d="M35.9,35.11c1.63.06,3.26.14,4.89.02,0,1.59-.03,3.18-.02,4.77,0,.61-.16.88-.82.76-.49-.09-1.02-.04-1.51-.14-2.06-.42-2.28-.7-2.39-2.78-.04-.88-.11-1.75-.16-2.63Z"/>
          <path class="cls-3" d="M43.3,27.94c-1.77-.06-3.63-.08-5.45-.58-.37-.1-.93-.14-.92-.62.01-.49.59-.51.95-.58,3.5-.67,6.99-.65,10.48.13.37.08.88.2.89.55.02.49-.55.52-.92.61-1.62.41-3.28.45-5.04.48Z"/>
          <path class="cls-3" d="M50.63,38.21c.13-.59.12-.88.73-1.07,1.1-.34,1.68-1.26,1.68-2.38,0-.23,0-.74-.31-1.23-.39-.63-.86-.56-1.36-1.02-.05-.05-.1-.1-.15-.16-.03-.04-.07-.08-.1-.12-.05-.06-.09-.12-.13-.18-.06-.08-.1-.17-.14-.25-.09-.19-.14-.37-.17-.53-.02-.13-.02-.26-.02-.37,0-.12.03-.24.04-.34,0-.04.06-.12.15-.17.05-.02.1-.03.15-.03.1,0,.21.03.31.05,2,.3,3.66,2.25,3.67,4.36,0,2.14-1.73,4.17-3.73,4.42-.99.12-.72-.6-.63-.98Z"/>
          <path class="cls-5" d="M10.65,28.8c.83-.86,1.81-.82,2.8-.41,1.02.42,1.59,1.19,1.66,2.33.07,1.19-.28,2.27-.7,3.34-.5,1.29-1.06,2.57-.93,4.01.14,1.53,1.48,2.95,2.99,3.13.07,0,.15-.1.23-.15.36.18.53.36-.06.38-2.74.11-5.2-2.9-4.48-5.55.3-1.11.78-2.16,1.12-3.26.69-2.26-.28-3.63-2.64-3.82Z"/>
          <path class="cls-7" d="M40.6,30.39c-1.67-.21-3.41-.22-4.71-1.55-.02-.46-.09-.98.64-.52.94.59,2.03.73,3.08.8.97.07,1.09.51,1,1.27Z"/>
          <path class="cls-6" d="M30.41,17.33c.03-.69.71-1.35,1.39-1.34.68,0,1.36.7,1.36,1.38,0,.73-.75,1.44-1.46,1.38-.71-.05-1.32-.72-1.29-1.43Z"/>
          <path class="cls-1" d="M39.3,17.55c-.02.72-.65,1.35-1.37,1.35-.7,0-1.37-.65-1.38-1.34-.01-.75.68-1.43,1.43-1.4.72.03,1.34.69,1.33,1.39Z"/>
          <path class="cls-3" d="M15.71,41s1.01.36,1.32.34c0,0,.13-.04-.45-.41"/>
        </g>
      </g>
    </g>
  </g>
</svg>